<svg xmlns="http://www.w3.org/2000/svg" width="140" height="140" fill="none"><g clip-path="url(#a)"><mask id="b" width="125" height="142" x="8" y="-1" maskUnits="userSpaceOnUse" style="mask-type:luminance"><path fill="#fff" d="M132.308 105.207v.04l-14.039 7.936-.023.013-9.416 5.323-16.893 9.548-7.68 4.341-14.103 7.971-.074-.042-5.085-2.874-42.956-24.28L8 105.247v-.04l14.039-7.937 48.115-27.197.064.036 2.493 1.409 4.421 2.499 7.124 4.028v.018l-14.038 7.902-.015.007-.05-.027-7.083 4.003-27.03 15.278 34.114 19.283.064-.036 10.534-5.954 3.505-1.982 17.022-9.621 2.931-1.657.058-.033-.008-.004 5.072-2.879 8.934-5.073h.003l14.039 7.937Zm-41.14-93.474-1.57-.887-12.466-7.05-4.42-2.5-2.558-1.443L8 34.985V99.46l14.039-7.937V42.92L63.07 19.727l7.084-4.003.064.035V64.36l2.493 1.41 4.421 2.498 7.124 4.028v-48.6L118.27 42.92v48.605l14.039 7.934V34.985l-41.14-23.252Z"/></mask><g mask="url(#b)"><path fill="url(#c)" d="M139.689-.147H8v140.526h131.689V-.147Z"/></g></g><defs><linearGradient id="c" x1="30.608" x2="161.491" y1="-41.215" y2="-23.051" gradientUnits="userSpaceOnUse"><stop stop-color="#893DFF"/><stop offset="1" stop-color="#AD00FF"/></linearGradient><clipPath id="a"><path fill="#fff" d="M0 140h140V0H0z"/></clipPath></defs></svg>